<svg xmlns="http://www.w3.org/2000/svg" xmlns:xlink="http://www.w3.org/1999/xlink" version="1.1" id="Layer_1" x="0px" y="0px" width="100%" height="100%" viewBox="0 200 800 400" enable-background="new 0 200 800 400" xml:space="preserve">
<path fill="#FFFFFF" opacity="1.000000" stroke="none" d=" M705.418579,484.245300   C694.553406,494.065948 683.946899,504.195557 672.727112,513.592773   C665.872253,519.334167 658.193481,524.224304 648.860046,525.243835   C641.562622,526.040955 637.116699,523.597717 634.049927,516.911499   C629.997070,508.075256 630.144470,498.662201 631.623169,489.441589   C632.970032,481.042664 635.558594,472.842834 637.542175,464.789337   C620.414490,468.191040 619.110596,468.252960 610.855042,465.925507   C607.196472,471.746979 603.981506,477.972839 599.710327,483.361481   C594.989929,489.316895 589.858643,495.218323 583.908020,499.864838   C574.384827,507.301117 566.786377,503.619659 565.217529,491.629395   C565.139465,491.032898 565.060730,490.436493 564.880371,489.064392   C560.043030,494.529205 555.894897,499.675018 551.267517,504.346039   C542.011902,513.688660 532.915466,523.267517 522.915405,531.762512   C517.497742,536.364807 510.637634,539.682129 503.916840,542.230469   C495.936859,545.256165 489.296875,541.289429 486.963135,533.102051   C482.888794,518.807983 484.347229,504.346863 486.536224,489.995605   C487.887726,481.134918 490.073242,472.401733 491.869202,463.608246   C492.153198,462.217712 492.357208,460.810852 491.634644,458.721466   C490.244934,459.956726 488.864105,461.202179 487.464111,462.425690   C473.045624,475.026428 458.919556,487.987457 444.066406,500.053375   C437.592010,505.312866 429.969147,509.554626 422.253235,512.795166   C411.214355,517.431274 403.628815,512.526917 403.043762,500.606842   C402.665039,492.891174 403.963531,485.090210 404.564850,477.331665   C404.695526,475.645874 405.058624,473.978088 404.186310,471.815216   C403.154816,472.946869 402.102386,474.060211 401.094940,475.212891   C384.875427,493.770142 368.837067,512.490356 352.348419,530.805176   C346.808746,536.958313 340.419128,542.456299 333.886017,547.574707   C327.087585,552.900879 321.015411,550.533447 320.920959,542.002502   C320.796570,530.769958 321.901337,519.419006 323.630188,508.298218   C325.619141,495.503937 328.880890,482.908295 331.548981,470.217804   C331.881989,468.633972 331.965698,466.997711 331.256317,464.965424   C330.175293,466.523926 329.092529,468.081238 328.013489,469.641113   C309.747040,496.048462 291.636353,522.565796 273.110260,548.789734   C268.239288,555.684692 262.142456,561.724976 256.475372,568.038208   C255.053650,569.622070 253.228821,570.927673 251.395538,572.042725   C245.897629,575.386719 241.013947,573.146484 241.132568,566.745056   C241.257690,559.992065 241.802292,553.001282 243.705048,546.570496   C250.867035,522.365234 258.704834,498.360626 266.194275,474.251282   C270.867157,459.208771 269.063416,457.069214 253.801804,452.648651   C244.524033,449.961273 237.994400,449.668060 230.113831,457.529602   C220.395920,467.223969 207.088379,470.532990 193.577072,466.037689   C187.589600,474.478394 182.013290,482.883575 175.830795,490.816345   C172.913818,494.559052 168.975418,497.570190 165.240646,500.592529   C161.659790,503.490417 157.278320,504.513641 153.052902,502.518402   C148.659241,500.443665 147.551559,496.037811 147.458313,491.535461   C147.403702,488.898621 147.841629,486.251587 147.082230,482.647003   C145.953949,484.111145 145.037247,485.822296 143.663025,486.999268   C134.834793,494.560425 126.547928,502.995941 116.865227,509.262177   C101.062546,519.489075 89.343605,512.957947 88.095139,494.029968   C87.647751,487.247223 88.443558,480.391022 88.413086,473.569489   C88.389877,468.373383 87.957878,463.179169 87.707756,457.984100   C87.125992,457.775970 86.544220,457.567810 85.962456,457.359680   C83.685562,459.117554 81.143608,460.621460 79.175697,462.675385   C68.145477,474.187622 60.055172,487.766846 52.137260,501.473907   C50.536263,504.245514 49.844749,509.327759 45.172596,507.693359   C40.126644,505.928223 42.884426,501.466217 43.661091,498.191315   C47.571957,481.700500 51.659946,465.251556 55.727909,448.798309   C56.354458,446.264191 56.742611,442.871796 60.579453,444.110443   C64.050468,445.230988 63.046249,448.078857 62.306095,450.808197   C59.598518,460.792480 57.075752,470.826904 55.267891,481.390533   C56.371922,479.909973 57.433346,478.395264 58.587231,476.954620   C64.092628,470.081360 69.351822,462.983032 75.245949,456.459259   C78.816879,452.506836 83.584106,448.863037 89.327103,451.253021   C94.793747,453.527985 95.582161,459.359833 95.773941,464.458344   C96.023186,471.084564 95.041145,477.747650 94.990761,484.397888   C94.955688,489.027069 95.101135,493.764679 96.041748,498.271057   C97.800873,506.698822 102.671661,509.100983 110.314117,504.904999   C116.239746,501.651642 122.301308,497.957397 126.912605,493.131165   C139.418015,480.042999 151.197937,466.260742 163.231506,452.723450   C165.663330,449.987793 167.731613,446.891510 170.381088,444.401611   C171.846878,443.024139 174.170349,442.559296 177.101852,441.233063   C178.026459,437.523560 180.716003,433.524628 186.304077,432.416565   C191.948761,431.297302 197.338562,435.848114 198.106003,442.543457   C198.423996,445.317566 198.225464,448.210541 197.833542,450.989044   C197.467957,453.581055 196.534439,456.093018 195.867126,458.579742   C204.474854,463.823273 223.000275,458.440338 232.331467,445.416382   C222.958557,437.769073 222.865265,427.724548 225.967819,417.322357   C231.588272,398.478333 241.565613,382.117065 255.662827,368.405670   C258.337494,365.804169 261.737549,363.554077 265.220337,362.318756   C267.482666,361.516327 270.520386,362.748566 273.175537,363.253906   C275.234070,363.645691 277.357727,365.066498 279.248505,364.762360   C306.516449,360.375977 333.734924,355.680634 361.011078,351.347839   C364.323669,350.821625 365.148224,349.321716 366.071014,346.596466   C377.307159,313.414398 388.570343,280.240295 400.126740,247.169037   C402.021545,241.746628 405.118408,236.677658 408.173950,231.765182   C409.183716,230.141785 412.124664,228.345016 413.620300,228.742645   C415.535919,229.251984 418.167725,231.843506 418.244415,233.634033   C418.518646,240.037842 418.696503,246.662674 417.381836,252.880615   C411.242401,281.918243 400.304474,309.423828 389.598724,336.984039   C388.342987,340.216705 387.046326,343.433441 385.414459,347.551331   C394.244843,346.511932 402.358582,345.411102 410.502686,344.624969   C437.523407,342.016785 464.539490,339.338043 491.588287,337.052307   C507.852966,335.677887 524.181213,335.065155 540.460938,333.843506   C541.911072,333.734680 543.679626,331.918701 544.511292,330.449127   C551.986450,317.239960 559.697815,304.162689 570.713806,293.549927   C574.456970,289.943756 579.009888,286.801849 583.747192,284.693542   C590.514526,281.681732 595.506775,284.915680 594.772705,292.249420   C593.738281,302.584137 592.423645,313.180267 589.103943,322.941956   C579.526428,351.105194 563.557739,375.935455 545.220642,399.059937   C532.727600,414.814575 518.674866,429.331970 505.340302,444.420990   C504.716156,445.127228 504.066132,445.947174 503.813263,446.825073   C496.750214,471.346985 490.474884,495.990204 491.934113,521.873535   C492.754211,536.420044 498.557526,539.541626 511.150970,531.934082   C525.047546,523.539307 535.696472,511.489716 546.437927,499.680115   C558.067322,486.894165 569.509705,473.926788 577.653748,458.389008   C580.388794,453.170929 584.608582,448.669373 588.530212,444.172150   C589.716675,442.811615 592.181213,442.565643 595.025024,441.420746   C595.025330,441.419800 595.410950,439.962036 596.067017,438.638306   C598.201233,434.332336 602.948608,431.647705 607.008057,432.333069   C611.638184,433.114777 615.789673,437.139282 615.912964,442.389130   C616.039673,447.789246 615.015686,453.216370 614.436829,459.238892   C622.970459,462.339844 631.606873,460.363098 639.224670,455.221222   C644.801331,451.457092 649.194458,445.986908 654.445740,441.680420   C660.074036,437.064880 665.858215,432.550537 672.020569,428.707458   C675.875610,426.303345 680.681580,425.584930 684.627808,429.071136   C688.440735,432.439484 688.029846,437.057892 686.447266,441.134766   C684.355652,446.523132 681.656677,451.721283 678.709290,456.699554   C677.980225,457.930817 675.285278,457.998108 673.493958,458.600403   C673.286316,456.847870 672.420959,454.831146 672.998230,453.393829   C674.539062,449.557190 676.894287,446.053894 678.542297,442.251801   C679.548706,439.929871 679.846375,437.300751 680.643188,434.078400   C670.722900,435.038391 664.512268,440.501099 658.944946,446.640656   C647.485779,459.277649 640.060364,473.977295 638.516541,491.130768   C637.970032,497.203033 638.205200,503.470398 639.052734,509.512756   C640.194763,517.654480 645.081299,520.736633 652.614868,517.350647   C660.102173,513.985413 667.658325,509.893555 673.769958,504.513641   C691.523010,488.886230 708.482788,472.382996 722.054688,452.776917   C724.035339,449.915741 726.278442,447.149506 728.822754,444.796356   C730.464294,443.278168 732.876709,442.593628 735.361023,442.481476   C736.200867,440.690186 736.788513,438.715302 737.931641,437.144714   C740.542114,433.558197 744.001953,431.432831 748.662903,432.573090   C753.901123,433.854492 756.257935,437.757599 756.936218,442.677032   C757.294250,445.272980 757.066956,448.015930 756.679810,450.629700   C756.292908,453.242096 755.377136,455.776184 754.612122,458.649200   C759.978943,461.633759 765.449585,460.702423 770.910706,459.358063   C778.994751,457.368011 785.140015,452.414368 790.639099,446.424042   C791.823303,445.134064 793.364258,443.765717 794.959351,443.408295   C795.943176,443.187805 798.209045,444.682129 798.352417,445.638550   C798.578735,447.147827 797.918640,449.187744 796.917603,450.422546   C785.503113,464.503418 769.025146,470.097473 752.283875,466.172668   C746.372253,474.507324 740.871643,482.805115 734.767761,490.632416   C731.848694,494.375793 727.920715,497.391998 724.202820,500.436066   C720.492188,503.474213 716.004395,504.629456 711.617981,502.379822   C707.114075,500.069916 706.234070,495.463531 706.155640,490.797272   C706.130737,489.313568 706.446289,487.824097 706.746704,485.635742   C706.887268,484.341309 706.887268,483.748383 706.887268,482.673126   C706.197327,483.411682 705.807983,483.828491 705.418579,484.245300  M387.464539,479.941406   C389.436340,477.466400 391.402222,474.986633 393.380890,472.517151   C404.713928,458.372711 415.938934,444.199982 423.094604,427.258728   C425.205841,422.260376 428.266754,417.526184 431.603638,413.222321   C434.715210,409.209106 438.342926,405.296967 442.509033,402.467590   C449.483795,397.730743 456.046356,401.461914 456.203552,409.806671   C456.252991,412.431885 456.031097,415.186096 455.275787,417.682251   C450.684479,432.855804 439.946991,441.673096 425.232849,446.322784   C423.659943,446.819824 421.448700,447.600922 420.945282,448.828949   C414.424927,464.735046 408.677979,480.873566 409.797577,498.493988   C410.334351,506.942078 413.507843,509.400269 421.045563,505.689789   C429.031067,501.758850 437.020966,497.205505 443.730255,491.436829   C460.769623,476.786469 477.166992,461.382874 493.623749,446.068512   C496.006287,443.851318 497.996521,440.688477 498.992035,437.585815   C509.311127,405.424835 521.584900,374.080658 537.165039,344.074707   C537.505310,343.419403 537.641724,342.658264 538.149292,341.097809   C520.938538,342.265411 504.306244,343.012207 487.754120,344.596741   C454.109009,347.817535 420.511963,351.538879 386.879791,354.900452   C383.663879,355.221893 382.004761,356.183624 380.731964,359.341797   C375.581573,372.121185 370.113831,384.774994 364.623138,397.414307   C358.867828,410.662933 351.144409,423.362030 347.484100,437.151489   C339.945557,465.551270 334.357391,494.479462 328.399933,523.279846   C327.095764,529.584473 327.603302,536.263916 327.276520,542.770752   C327.944641,543.021545 328.612732,543.272339 329.280853,543.523132   C350.766449,524.616028 368.765533,502.436615 387.464539,479.941406  M260.956451,513.480835   C255.695129,530.581970 248.685211,547.270081 248.518814,565.767212   C251.713867,563.332581 254.550247,560.764893 256.850586,557.783569   C265.589905,546.457336 274.562073,535.278809 282.702728,523.529236   C300.031982,498.517548 316.771210,473.097351 334.066559,448.061676   C337.128082,443.630035 339.384094,439.166382 340.763611,434.032593   C344.728210,419.278564 348.822327,404.558472 352.978180,389.856934   C355.893951,379.542206 358.994324,369.279602 362.308075,357.985474   C332.882843,363.018311 304.313782,367.904694 276.045441,372.739655   C270.891052,398.914062 258.552338,421.176636 244.055466,442.561707   C250.942154,444.574493 257.712860,446.192322 264.219757,448.541016   C273.633118,451.938812 277.680786,458.417297 275.076111,468.062317   C271.014496,483.102173 265.832703,497.839508 260.956451,513.480835  M586.653076,291.159821   C583.393005,293.040131 579.668884,294.411926 576.953613,296.889374   C565.645020,307.207703 558.201904,320.384308 550.487244,333.297455   C552.390137,334.770325 554.351685,335.723541 555.423706,337.286774   C556.381104,338.682800 556.356201,340.752380 556.764709,342.524811   C554.981689,342.555634 552.673828,343.317993 551.511230,342.483978   C547.577087,339.661835 545.939209,341.193726 544.067566,344.903809   C530.407410,371.981720 518.979614,399.968109 509.691681,429.057068   C511.213470,428.259552 512.567444,427.261444 513.700195,426.055481   C533.253235,405.238922 550.581970,382.647278 564.757935,357.908722   C572.379883,344.607758 578.607971,330.354614 583.965210,315.972504   C586.752380,308.489929 586.283142,299.794342 586.653076,291.159821  M238.996948,403.583466   C236.527939,410.754608 233.477295,417.792023 231.787186,425.142273   C230.590378,430.347137 232.073135,435.628967 237.298065,439.204559   C252.263336,417.693726 265.477264,395.739563 268.062225,368.862518   C253.886169,376.391876 246.656754,389.701172 238.996948,403.583466  M740.202393,470.697968   C741.873596,467.704071 743.544800,464.710144 744.834045,462.400482   C741.433350,457.458374 738.466919,453.147400 735.604675,448.987915   C732.010986,453.502502 728.223999,458.112518 724.599243,462.846771   C718.642822,470.626373 714.921875,479.449341 713.459167,489.091675   C713.130127,491.260315 714.496643,493.686157 715.082703,495.993591   C717.318848,495.234833 720.311951,495.140900 721.661987,493.603882   C727.985107,486.404816 733.855896,478.808411 740.202393,470.697968  M170.111221,486.603088   C175.749649,478.485718 181.388077,470.368317 186.463806,463.061035   C182.717224,457.540863 179.809586,453.256775 176.903625,448.975189   C168.378418,458.444824 160.218353,468.449249 156.488815,481.182373   C155.432938,484.787323 154.848389,488.656006 154.835693,492.406372   C154.822296,496.360138 157.146393,497.609406 160.397720,495.368103   C163.769302,493.043915 166.589951,489.920532 170.111221,486.603088  M576.263428,475.932343   C575.011414,480.225616 573.399841,484.458008 572.658203,488.837738   C572.284241,491.046021 573.487305,493.521393 573.977295,495.876007   C576.352173,495.093903 579.243164,494.923920 581.016602,493.428558   C591.238708,484.809021 597.997620,473.570923 603.985535,462.340118   C600.811951,457.865417 597.899292,453.758698 594.672546,449.209045   C588.672424,457.885529 582.659790,466.580078 576.263428,475.932343  M389.200104,317.717377   C395.658142,298.530701 402.374603,279.425171 408.438873,260.114838   C410.666321,253.021988 411.351135,245.444687 412.739624,238.088379   C412.051727,237.918106 411.363831,237.747833 410.675903,237.577560   C397.812561,274.540039 384.949219,311.502533 372.085876,348.464996   C372.783691,348.927887 373.481537,349.390747 374.179352,349.853607   C375.542816,348.509003 377.491943,347.408997 378.172577,345.779236   C381.945374,336.745239 385.409698,327.582367 389.200104,317.717377  M430.827271,436.535980   C443.450714,429.554932 450.365112,418.510315 448.576202,408.184998   C441.475403,409.295715 427.572540,428.115936 426.414703,438.313293   C427.704529,437.824890 428.928894,437.361298 430.827271,436.535980  M603.149597,449.017212   C604.372192,450.660156 605.594788,452.303101 607.588196,454.981873   C608.256836,450.868866 609.308228,448.064545 608.954041,445.450684   C608.657166,443.259521 606.663025,439.515961 605.519104,439.552490   C601.931519,439.667084 601.669739,442.955658 602.069275,445.957977   C602.175659,446.757690 602.612915,447.513397 603.149597,449.017212  M745.245483,451.025604   C746.153015,451.983459 747.060547,452.941315 748.814636,454.792664   C749.314453,450.246460 750.118591,446.980042 749.836914,443.810150   C749.693115,442.191742 747.601807,440.746399 746.390747,439.222839   C745.203674,440.946838 743.282532,442.572784 743.035461,444.422333   C742.786987,446.282440 744.204224,448.365051 745.245483,451.025604  M186.875427,439.414062   C182.340042,443.704376 183.334473,449.073761 189.781342,453.629364   C190.245865,451.456421 190.910141,449.432678 191.065842,447.370544   C191.308411,444.157806 192.018265,440.571198 186.875427,439.414062  M364.196289,378.772705   C367.416046,371.678253 370.635803,364.583771 374.014862,357.138306   C369.209839,357.543365 368.389709,359.376343 364.196289,378.772705  M404.675934,470.798004   C404.771912,471.187469 404.867859,471.576935 404.963806,471.966400   C405.215088,471.876953 405.690948,471.750305 405.683258,471.703766   C405.599121,471.195953 405.439301,470.700714 404.675934,470.798004  M492.496033,458.999664   C492.528839,458.699707 492.561615,458.399750 492.594421,458.099823   C492.396240,458.233215 492.198029,458.366608 492.496033,458.999664  z"/>
<path fill="#FFFFFF" opacity="1.000000" stroke="none" d=" M12.999195,546.552795   C11.619950,547.696533 9.678661,549.411987 8.970737,549.001343   C7.286613,548.024353 5.482237,546.198547 5.084138,544.413086   C4.794066,543.112000 6.367132,540.299927 7.629953,539.927979   C15.261889,537.679810 22.976362,535.591064 30.786030,534.086426   C92.775177,522.143921 155.321198,516.577698 218.462158,518.174133   C226.450195,518.376160 234.433594,518.826355 242.412781,519.274963   C244.979248,519.419189 248.306778,519.160095 248.226547,523.029846   C248.141449,527.133484 244.834930,526.329041 242.249512,526.176208   C202.111130,523.803406 162.004257,524.536804 121.983780,528.127319   C85.691902,531.383240 49.706276,536.870056 14.141016,544.913513   C13.689266,545.015747 13.375836,545.729614 12.999195,546.552795  z"/>
<path fill="#FFFFFF" opacity="1.000000" stroke="none" d=" M602.577148,404.508392   C612.960022,404.005432 622.918091,403.527954 632.880188,403.157013   C634.517944,403.096069 636.343994,403.137054 637.769409,403.802582   C639.039673,404.395691 640.887024,406.188782 640.678101,406.971558   C640.321045,408.309814 638.640015,410.114594 637.366455,410.242462   C632.587097,410.722168 627.744507,410.526184 622.931519,410.726776   C616.288696,411.003693 609.652161,411.429504 603.011108,411.752441   C600.216064,411.888336 596.695251,412.539917 596.396912,408.537506   C596.122192,404.851593 599.565125,404.968536 602.577148,404.508392  z"/>
<path fill="#FFFFFF" opacity="1.000000" stroke="none" d=" M191.146515,414.194458   C189.557236,415.693939 188.409439,417.295563 186.850342,418.092285   C185.673004,418.693878 183.221893,418.857147 182.672073,418.161285   C181.800201,417.057709 181.247574,414.320923 181.944107,413.584747   C186.264069,409.018677 190.887283,404.722748 195.629517,400.589142   C196.430206,399.891235 199.136276,399.902832 199.492599,400.485382   C200.188293,401.622833 200.512482,403.915588 199.813400,404.811584   C197.276138,408.063538 194.251816,410.935425 191.146515,414.194458  z"/>
<path fill="#FFFFFF" opacity="1.000000" stroke="none" d=" M211.141876,403.296722   C212.837234,403.460876 214.745438,403.424164 215.516449,404.342346   C216.122864,405.064514 215.826935,407.416290 215.064362,408.263031   C211.983032,411.684662 208.699814,414.963501 205.176559,417.920166   C204.316391,418.641968 202.262482,417.941254 200.757446,417.894592   C200.839722,416.091888 200.206329,413.656677 201.136932,412.603729   C204.063446,409.292389 207.577728,406.500488 211.141876,403.296722  z"/>
</svg>